<mxfile host="app.diagrams.net" agent="Mozilla/5.0 (X11; Ubuntu; Linux x86_64; rv:134.0) Gecko/20100101 Firefox/134.0" version="26.0.9" pages="4">
  <diagram name="Page-1" id="IUOQkinswsXETGanpMaD">
    <mxGraphModel dx="1434" dy="1895" grid="1" gridSize="10" guides="1" tooltips="1" connect="1" arrows="1" fold="1" page="1" pageScale="1" pageWidth="850" pageHeight="1100" math="0" shadow="0">
      <root>
        <mxCell id="0" />
        <mxCell id="1" parent="0" />
        <mxCell id="sxWwfd6JlVTUTdyIbScy-1" value="start" style="ellipse;whiteSpace=wrap;html=1;" vertex="1" parent="1">
          <mxGeometry x="405" y="-55" width="120" height="80" as="geometry" />
        </mxCell>
        <mxCell id="sxWwfd6JlVTUTdyIbScy-2" value="" style="endArrow=classic;html=1;rounded=0;exitX=0.5;exitY=1;exitDx=0;exitDy=0;" edge="1" parent="1" source="sxWwfd6JlVTUTdyIbScy-1" target="sxWwfd6JlVTUTdyIbScy-3">
          <mxGeometry width="50" height="50" relative="1" as="geometry">
            <mxPoint x="425" y="155" as="sourcePoint" />
            <mxPoint x="465" y="85" as="targetPoint" />
          </mxGeometry>
        </mxCell>
        <mxCell id="sxWwfd6JlVTUTdyIbScy-3" value="read n" style="shape=parallelogram;perimeter=parallelogramPerimeter;whiteSpace=wrap;html=1;fixedSize=1;" vertex="1" parent="1">
          <mxGeometry x="405" y="55" width="120" height="60" as="geometry" />
        </mxCell>
        <mxCell id="sxWwfd6JlVTUTdyIbScy-4" value="" style="endArrow=classic;html=1;rounded=0;exitX=0.5;exitY=1;exitDx=0;exitDy=0;entryX=0.5;entryY=0;entryDx=0;entryDy=0;" edge="1" parent="1" source="sxWwfd6JlVTUTdyIbScy-3" target="LsXvcj6zMTjTYFgTM_gr-2">
          <mxGeometry width="50" height="50" relative="1" as="geometry">
            <mxPoint x="475" y="310" as="sourcePoint" />
            <mxPoint x="465" y="160" as="targetPoint" />
          </mxGeometry>
        </mxCell>
        <mxCell id="sxWwfd6JlVTUTdyIbScy-5" value="&lt;div&gt;n &amp;gt; 0&lt;/div&gt;&lt;div&gt;AND&lt;/div&gt;&lt;div&gt;n%==1&lt;br&gt;&lt;/div&gt;" style="rhombus;whiteSpace=wrap;html=1;" vertex="1" parent="1">
          <mxGeometry x="425" y="330" width="80" height="80" as="geometry" />
        </mxCell>
        <mxCell id="sxWwfd6JlVTUTdyIbScy-6" value="" style="endArrow=classic;html=1;rounded=0;exitX=0;exitY=0.5;exitDx=0;exitDy=0;" edge="1" parent="1" source="sxWwfd6JlVTUTdyIbScy-5" target="sxWwfd6JlVTUTdyIbScy-7">
          <mxGeometry width="50" height="50" relative="1" as="geometry">
            <mxPoint x="535" y="290" as="sourcePoint" />
            <mxPoint x="565" y="370" as="targetPoint" />
          </mxGeometry>
        </mxCell>
        <mxCell id="sxWwfd6JlVTUTdyIbScy-7" value="write &quot;errore&quot;" style="shape=parallelogram;perimeter=parallelogramPerimeter;whiteSpace=wrap;html=1;fixedSize=1;" vertex="1" parent="1">
          <mxGeometry x="225" y="340" width="120" height="60" as="geometry" />
        </mxCell>
        <mxCell id="sxWwfd6JlVTUTdyIbScy-9" value="" style="endArrow=classic;html=1;rounded=0;exitX=0.5;exitY=1;exitDx=0;exitDy=0;" edge="1" parent="1" source="sxWwfd6JlVTUTdyIbScy-5" target="sxWwfd6JlVTUTdyIbScy-11">
          <mxGeometry width="50" height="50" relative="1" as="geometry">
            <mxPoint x="485" y="510" as="sourcePoint" />
            <mxPoint x="465" y="470" as="targetPoint" />
          </mxGeometry>
        </mxCell>
        <mxCell id="sxWwfd6JlVTUTdyIbScy-11" value="i &amp;lt;= n" style="rhombus;whiteSpace=wrap;html=1;" vertex="1" parent="1">
          <mxGeometry x="425" y="456" width="80" height="80" as="geometry" />
        </mxCell>
        <mxCell id="sxWwfd6JlVTUTdyIbScy-12" value="" style="endArrow=classic;html=1;rounded=0;exitX=0.5;exitY=1;exitDx=0;exitDy=0;entryX=0.5;entryY=0;entryDx=0;entryDy=0;" edge="1" parent="1" source="sxWwfd6JlVTUTdyIbScy-11" target="sxWwfd6JlVTUTdyIbScy-16">
          <mxGeometry width="50" height="50" relative="1" as="geometry">
            <mxPoint x="485" y="510" as="sourcePoint" />
            <mxPoint x="465" y="560" as="targetPoint" />
          </mxGeometry>
        </mxCell>
        <mxCell id="sxWwfd6JlVTUTdyIbScy-13" value="i=1" style="rounded=0;whiteSpace=wrap;html=1;" vertex="1" parent="1">
          <mxGeometry x="405" y="240" width="120" height="60" as="geometry" />
        </mxCell>
        <mxCell id="sxWwfd6JlVTUTdyIbScy-14" value="" style="endArrow=classic;html=1;rounded=0;exitX=0.5;exitY=1;exitDx=0;exitDy=0;entryX=0.5;entryY=0;entryDx=0;entryDy=0;" edge="1" parent="1" source="sxWwfd6JlVTUTdyIbScy-13" target="sxWwfd6JlVTUTdyIbScy-5">
          <mxGeometry width="50" height="50" relative="1" as="geometry">
            <mxPoint x="485" y="440" as="sourcePoint" />
            <mxPoint x="535" y="390" as="targetPoint" />
          </mxGeometry>
        </mxCell>
        <mxCell id="sxWwfd6JlVTUTdyIbScy-16" value="sum= i*i+sum" style="rounded=0;whiteSpace=wrap;html=1;" vertex="1" parent="1">
          <mxGeometry x="405" y="580" width="120" height="60" as="geometry" />
        </mxCell>
        <mxCell id="sxWwfd6JlVTUTdyIbScy-17" value="" style="endArrow=classic;html=1;rounded=0;exitX=1;exitY=0.5;exitDx=0;exitDy=0;" edge="1" parent="1" source="sxWwfd6JlVTUTdyIbScy-16" target="sxWwfd6JlVTUTdyIbScy-18">
          <mxGeometry width="50" height="50" relative="1" as="geometry">
            <mxPoint x="485" y="440" as="sourcePoint" />
            <mxPoint x="655" y="530" as="targetPoint" />
            <Array as="points">
              <mxPoint x="655" y="610" />
            </Array>
          </mxGeometry>
        </mxCell>
        <mxCell id="sxWwfd6JlVTUTdyIbScy-18" value="i+=1" style="rounded=0;whiteSpace=wrap;html=1;" vertex="1" parent="1">
          <mxGeometry x="595" y="466" width="120" height="60" as="geometry" />
        </mxCell>
        <mxCell id="sxWwfd6JlVTUTdyIbScy-19" value="" style="endArrow=classic;html=1;rounded=0;exitX=0;exitY=0.5;exitDx=0;exitDy=0;" edge="1" parent="1" source="sxWwfd6JlVTUTdyIbScy-18">
          <mxGeometry width="50" height="50" relative="1" as="geometry">
            <mxPoint x="585" y="495.5" as="sourcePoint" />
            <mxPoint x="505" y="495.5" as="targetPoint" />
          </mxGeometry>
        </mxCell>
        <mxCell id="sxWwfd6JlVTUTdyIbScy-22" value="" style="endArrow=classic;html=1;rounded=0;exitX=0;exitY=0.5;exitDx=0;exitDy=0;" edge="1" parent="1" source="sxWwfd6JlVTUTdyIbScy-11">
          <mxGeometry width="50" height="50" relative="1" as="geometry">
            <mxPoint x="375" y="500" as="sourcePoint" />
            <mxPoint x="335" y="496" as="targetPoint" />
          </mxGeometry>
        </mxCell>
        <mxCell id="sxWwfd6JlVTUTdyIbScy-23" value="write sum" style="shape=parallelogram;perimeter=parallelogramPerimeter;whiteSpace=wrap;html=1;fixedSize=1;" vertex="1" parent="1">
          <mxGeometry x="224" y="466" width="120" height="60" as="geometry" />
        </mxCell>
        <mxCell id="sxWwfd6JlVTUTdyIbScy-24" value="end" style="ellipse;whiteSpace=wrap;html=1;" vertex="1" parent="1">
          <mxGeometry x="40" y="400" width="120" height="80" as="geometry" />
        </mxCell>
        <mxCell id="sxWwfd6JlVTUTdyIbScy-25" value="" style="endArrow=classic;html=1;rounded=0;exitX=0;exitY=0.5;exitDx=0;exitDy=0;entryX=1;entryY=0.5;entryDx=0;entryDy=0;" edge="1" parent="1" source="sxWwfd6JlVTUTdyIbScy-7" target="sxWwfd6JlVTUTdyIbScy-24">
          <mxGeometry width="50" height="50" relative="1" as="geometry">
            <mxPoint x="230" y="430" as="sourcePoint" />
            <mxPoint x="190" y="440" as="targetPoint" />
            <Array as="points">
              <mxPoint x="190" y="370" />
              <mxPoint x="190" y="440" />
            </Array>
          </mxGeometry>
        </mxCell>
        <mxCell id="sxWwfd6JlVTUTdyIbScy-26" value="" style="endArrow=none;html=1;rounded=0;entryX=0;entryY=0.5;entryDx=0;entryDy=0;" edge="1" parent="1" target="sxWwfd6JlVTUTdyIbScy-23">
          <mxGeometry width="50" height="50" relative="1" as="geometry">
            <mxPoint x="190" y="440" as="sourcePoint" />
            <mxPoint x="220" y="480" as="targetPoint" />
            <Array as="points">
              <mxPoint x="190" y="496" />
            </Array>
          </mxGeometry>
        </mxCell>
        <mxCell id="sxWwfd6JlVTUTdyIbScy-27" value="" style="ellipse;whiteSpace=wrap;html=1;aspect=fixed;" vertex="1" parent="1">
          <mxGeometry x="180" y="430" width="20" height="20" as="geometry" />
        </mxCell>
        <mxCell id="sxWwfd6JlVTUTdyIbScy-28" value="False" style="text;html=1;align=center;verticalAlign=middle;resizable=0;points=[];autosize=1;strokeColor=none;fillColor=none;" vertex="1" parent="1">
          <mxGeometry x="370" y="350" width="50" height="30" as="geometry" />
        </mxCell>
        <mxCell id="sxWwfd6JlVTUTdyIbScy-29" value="True" style="text;html=1;align=center;verticalAlign=middle;resizable=0;points=[];autosize=1;strokeColor=none;fillColor=none;" vertex="1" parent="1">
          <mxGeometry x="456" y="418" width="50" height="30" as="geometry" />
        </mxCell>
        <mxCell id="sxWwfd6JlVTUTdyIbScy-30" value="True" style="text;html=1;align=center;verticalAlign=middle;resizable=0;points=[];autosize=1;strokeColor=none;fillColor=none;" vertex="1" parent="1">
          <mxGeometry x="455" y="544" width="50" height="30" as="geometry" />
        </mxCell>
        <mxCell id="sxWwfd6JlVTUTdyIbScy-31" value="False" style="text;html=1;align=center;verticalAlign=middle;resizable=0;points=[];autosize=1;strokeColor=none;fillColor=none;" vertex="1" parent="1">
          <mxGeometry x="372" y="473" width="50" height="30" as="geometry" />
        </mxCell>
        <mxCell id="LsXvcj6zMTjTYFgTM_gr-2" value="sum=0" style="whiteSpace=wrap;html=1;" vertex="1" parent="1">
          <mxGeometry x="405" y="150" width="120" height="60" as="geometry" />
        </mxCell>
        <mxCell id="LsXvcj6zMTjTYFgTM_gr-3" value="" style="endArrow=classic;html=1;rounded=0;exitX=0.5;exitY=1;exitDx=0;exitDy=0;entryX=0.5;entryY=0;entryDx=0;entryDy=0;" edge="1" parent="1" source="LsXvcj6zMTjTYFgTM_gr-2" target="sxWwfd6JlVTUTdyIbScy-13">
          <mxGeometry width="50" height="50" relative="1" as="geometry">
            <mxPoint x="270" y="430" as="sourcePoint" />
            <mxPoint x="320" y="380" as="targetPoint" />
          </mxGeometry>
        </mxCell>
      </root>
    </mxGraphModel>
  </diagram>
  <diagram id="74p2cLVe80GDOlRFKYuD" name="Page-2">
    <mxGraphModel dx="2214" dy="795" grid="1" gridSize="10" guides="1" tooltips="1" connect="1" arrows="1" fold="1" page="1" pageScale="1" pageWidth="850" pageHeight="1100" math="0" shadow="0">
      <root>
        <mxCell id="0" />
        <mxCell id="1" parent="0" />
        <mxCell id="kV6HQKOM6O_8avg19G0K-1" value="start" style="ellipse;whiteSpace=wrap;html=1;" vertex="1" parent="1">
          <mxGeometry x="360" y="40" width="120" height="80" as="geometry" />
        </mxCell>
        <mxCell id="kV6HQKOM6O_8avg19G0K-2" value="" style="endArrow=classic;html=1;rounded=0;exitX=0.5;exitY=1;exitDx=0;exitDy=0;" edge="1" parent="1" source="kV6HQKOM6O_8avg19G0K-1" target="kV6HQKOM6O_8avg19G0K-3">
          <mxGeometry width="50" height="50" relative="1" as="geometry">
            <mxPoint x="400" y="190" as="sourcePoint" />
            <mxPoint x="420" y="190" as="targetPoint" />
          </mxGeometry>
        </mxCell>
        <mxCell id="kV6HQKOM6O_8avg19G0K-3" value="read x" style="shape=parallelogram;perimeter=parallelogramPerimeter;whiteSpace=wrap;html=1;fixedSize=1;" vertex="1" parent="1">
          <mxGeometry x="360" y="160" width="120" height="60" as="geometry" />
        </mxCell>
        <mxCell id="kV6HQKOM6O_8avg19G0K-4" value="" style="endArrow=classic;html=1;rounded=0;exitX=0.5;exitY=1;exitDx=0;exitDy=0;" edge="1" parent="1" source="kV6HQKOM6O_8avg19G0K-3" target="kV6HQKOM6O_8avg19G0K-5">
          <mxGeometry width="50" height="50" relative="1" as="geometry">
            <mxPoint x="400" y="440" as="sourcePoint" />
            <mxPoint x="420" y="290" as="targetPoint" />
          </mxGeometry>
        </mxCell>
        <mxCell id="kV6HQKOM6O_8avg19G0K-5" value="x&amp;gt;0" style="rhombus;whiteSpace=wrap;html=1;" vertex="1" parent="1">
          <mxGeometry x="380" y="250" width="80" height="80" as="geometry" />
        </mxCell>
        <mxCell id="kV6HQKOM6O_8avg19G0K-6" value="" style="endArrow=classic;html=1;rounded=0;exitX=0;exitY=0.5;exitDx=0;exitDy=0;" edge="1" parent="1" source="kV6HQKOM6O_8avg19G0K-5" target="kV6HQKOM6O_8avg19G0K-7">
          <mxGeometry width="50" height="50" relative="1" as="geometry">
            <mxPoint x="400" y="440" as="sourcePoint" />
            <mxPoint x="280" y="290" as="targetPoint" />
          </mxGeometry>
        </mxCell>
        <mxCell id="kV6HQKOM6O_8avg19G0K-44" value="False" style="edgeLabel;html=1;align=center;verticalAlign=middle;resizable=0;points=[];" vertex="1" connectable="0" parent="kV6HQKOM6O_8avg19G0K-6">
          <mxGeometry x="-0.2" y="-4" relative="1" as="geometry">
            <mxPoint as="offset" />
          </mxGeometry>
        </mxCell>
        <mxCell id="kV6HQKOM6O_8avg19G0K-7" value="&amp;nbsp;write &quot;errore&quot;" style="shape=parallelogram;perimeter=parallelogramPerimeter;whiteSpace=wrap;html=1;fixedSize=1;" vertex="1" parent="1">
          <mxGeometry x="220" y="260" width="120" height="60" as="geometry" />
        </mxCell>
        <mxCell id="kV6HQKOM6O_8avg19G0K-8" value="" style="endArrow=classic;html=1;rounded=0;exitX=0.5;exitY=1;exitDx=0;exitDy=0;" edge="1" parent="1" source="kV6HQKOM6O_8avg19G0K-5" target="kV6HQKOM6O_8avg19G0K-9">
          <mxGeometry width="50" height="50" relative="1" as="geometry">
            <mxPoint x="400" y="440" as="sourcePoint" />
            <mxPoint x="420" y="390" as="targetPoint" />
          </mxGeometry>
        </mxCell>
        <mxCell id="kV6HQKOM6O_8avg19G0K-45" value="True" style="edgeLabel;html=1;align=center;verticalAlign=middle;resizable=0;points=[];" vertex="1" connectable="0" parent="kV6HQKOM6O_8avg19G0K-8">
          <mxGeometry x="-0.4" y="-2" relative="1" as="geometry">
            <mxPoint as="offset" />
          </mxGeometry>
        </mxCell>
        <mxCell id="kV6HQKOM6O_8avg19G0K-9" value="read n" style="shape=parallelogram;perimeter=parallelogramPerimeter;whiteSpace=wrap;html=1;fixedSize=1;" vertex="1" parent="1">
          <mxGeometry x="360" y="360" width="120" height="60" as="geometry" />
        </mxCell>
        <mxCell id="kV6HQKOM6O_8avg19G0K-10" value="" style="endArrow=classic;html=1;rounded=0;" edge="1" parent="1" target="kV6HQKOM6O_8avg19G0K-11">
          <mxGeometry width="50" height="50" relative="1" as="geometry">
            <mxPoint x="420" y="590" as="sourcePoint" />
            <mxPoint x="420" y="581" as="targetPoint" />
          </mxGeometry>
        </mxCell>
        <mxCell id="kV6HQKOM6O_8avg19G0K-47" value="True" style="edgeLabel;html=1;align=center;verticalAlign=middle;resizable=0;points=[];" vertex="1" connectable="0" parent="kV6HQKOM6O_8avg19G0K-10">
          <mxGeometry x="0.3253" y="2" relative="1" as="geometry">
            <mxPoint as="offset" />
          </mxGeometry>
        </mxCell>
        <mxCell id="kV6HQKOM6O_8avg19G0K-11" value="x %2==0" style="rhombus;whiteSpace=wrap;html=1;" vertex="1" parent="1">
          <mxGeometry x="380" y="673" width="80" height="80" as="geometry" />
        </mxCell>
        <mxCell id="kV6HQKOM6O_8avg19G0K-14" value="" style="endArrow=classic;html=1;rounded=0;" edge="1" parent="1" target="kV6HQKOM6O_8avg19G0K-15">
          <mxGeometry width="50" height="50" relative="1" as="geometry">
            <mxPoint x="460" y="713" as="sourcePoint" />
            <mxPoint x="520" y="713" as="targetPoint" />
          </mxGeometry>
        </mxCell>
        <mxCell id="kV6HQKOM6O_8avg19G0K-48" value="True" style="edgeLabel;html=1;align=center;verticalAlign=middle;resizable=0;points=[];" vertex="1" connectable="0" parent="kV6HQKOM6O_8avg19G0K-14">
          <mxGeometry x="-0.12" y="-4" relative="1" as="geometry">
            <mxPoint as="offset" />
          </mxGeometry>
        </mxCell>
        <mxCell id="kV6HQKOM6O_8avg19G0K-15" value="n &amp;gt; x/2" style="rhombus;whiteSpace=wrap;html=1;" vertex="1" parent="1">
          <mxGeometry x="510" y="673" width="80" height="80" as="geometry" />
        </mxCell>
        <mxCell id="kV6HQKOM6O_8avg19G0K-16" value="i = 1" style="rounded=0;whiteSpace=wrap;html=1;" vertex="1" parent="1">
          <mxGeometry x="360" y="450" width="120" height="60" as="geometry" />
        </mxCell>
        <mxCell id="kV6HQKOM6O_8avg19G0K-17" value="" style="endArrow=classic;html=1;rounded=0;exitX=0.5;exitY=1;exitDx=0;exitDy=0;entryX=0.5;entryY=0;entryDx=0;entryDy=0;" edge="1" parent="1" source="kV6HQKOM6O_8avg19G0K-9" target="kV6HQKOM6O_8avg19G0K-16">
          <mxGeometry width="50" height="50" relative="1" as="geometry">
            <mxPoint x="400" y="440" as="sourcePoint" />
            <mxPoint x="450" y="390" as="targetPoint" />
          </mxGeometry>
        </mxCell>
        <mxCell id="kV6HQKOM6O_8avg19G0K-21" value="i &amp;lt;= 10" style="rhombus;whiteSpace=wrap;html=1;" vertex="1" parent="1">
          <mxGeometry x="380" y="550" width="80" height="80" as="geometry" />
        </mxCell>
        <mxCell id="kV6HQKOM6O_8avg19G0K-22" value="" style="endArrow=classic;html=1;rounded=0;exitX=0.5;exitY=1;exitDx=0;exitDy=0;entryX=0.5;entryY=0;entryDx=0;entryDy=0;" edge="1" parent="1" source="kV6HQKOM6O_8avg19G0K-16" target="kV6HQKOM6O_8avg19G0K-21">
          <mxGeometry width="50" height="50" relative="1" as="geometry">
            <mxPoint x="400" y="440" as="sourcePoint" />
            <mxPoint x="450" y="390" as="targetPoint" />
          </mxGeometry>
        </mxCell>
        <mxCell id="kV6HQKOM6O_8avg19G0K-24" value="sum=n + sum" style="rounded=0;whiteSpace=wrap;html=1;" vertex="1" parent="1">
          <mxGeometry x="640" y="683" width="120" height="60" as="geometry" />
        </mxCell>
        <mxCell id="kV6HQKOM6O_8avg19G0K-25" value="i +1 " style="rounded=0;whiteSpace=wrap;html=1;" vertex="1" parent="1">
          <mxGeometry x="640" y="560" width="120" height="60" as="geometry" />
        </mxCell>
        <mxCell id="kV6HQKOM6O_8avg19G0K-27" value="" style="endArrow=classic;html=1;rounded=0;exitX=0;exitY=0.5;exitDx=0;exitDy=0;entryX=1;entryY=0.5;entryDx=0;entryDy=0;" edge="1" parent="1" source="kV6HQKOM6O_8avg19G0K-25" target="kV6HQKOM6O_8avg19G0K-21">
          <mxGeometry width="50" height="50" relative="1" as="geometry">
            <mxPoint x="400" y="440" as="sourcePoint" />
            <mxPoint x="450" y="390" as="targetPoint" />
          </mxGeometry>
        </mxCell>
        <mxCell id="kV6HQKOM6O_8avg19G0K-28" value="" style="endArrow=classic;html=1;rounded=0;exitX=1;exitY=0.5;exitDx=0;exitDy=0;entryX=0;entryY=0.5;entryDx=0;entryDy=0;" edge="1" parent="1" source="kV6HQKOM6O_8avg19G0K-15" target="kV6HQKOM6O_8avg19G0K-24">
          <mxGeometry width="50" height="50" relative="1" as="geometry">
            <mxPoint x="400" y="440" as="sourcePoint" />
            <mxPoint x="450" y="390" as="targetPoint" />
          </mxGeometry>
        </mxCell>
        <mxCell id="kV6HQKOM6O_8avg19G0K-49" value="True" style="edgeLabel;html=1;align=center;verticalAlign=middle;resizable=0;points=[];" vertex="1" connectable="0" parent="kV6HQKOM6O_8avg19G0K-28">
          <mxGeometry x="0.12" y="1" relative="1" as="geometry">
            <mxPoint as="offset" />
          </mxGeometry>
        </mxCell>
        <mxCell id="kV6HQKOM6O_8avg19G0K-29" value="n&amp;lt;x" style="rhombus;whiteSpace=wrap;html=1;" vertex="1" parent="1">
          <mxGeometry x="380" y="790" width="80" height="80" as="geometry" />
        </mxCell>
        <mxCell id="kV6HQKOM6O_8avg19G0K-30" value="sum= n+sum" style="rounded=0;whiteSpace=wrap;html=1;" vertex="1" parent="1">
          <mxGeometry x="640" y="800" width="120" height="60" as="geometry" />
        </mxCell>
        <mxCell id="kV6HQKOM6O_8avg19G0K-32" value="" style="ellipse;whiteSpace=wrap;html=1;aspect=fixed;" vertex="1" parent="1">
          <mxGeometry x="810" y="704" width="20" height="20" as="geometry" />
        </mxCell>
        <mxCell id="kV6HQKOM6O_8avg19G0K-34" value="" style="endArrow=classic;html=1;rounded=0;exitX=0.5;exitY=0;exitDx=0;exitDy=0;entryX=1;entryY=0.5;entryDx=0;entryDy=0;" edge="1" parent="1" source="kV6HQKOM6O_8avg19G0K-32" target="kV6HQKOM6O_8avg19G0K-25">
          <mxGeometry width="50" height="50" relative="1" as="geometry">
            <mxPoint x="760" y="650" as="sourcePoint" />
            <mxPoint x="810" y="600" as="targetPoint" />
            <Array as="points">
              <mxPoint x="820" y="590" />
            </Array>
          </mxGeometry>
        </mxCell>
        <mxCell id="kV6HQKOM6O_8avg19G0K-35" value="" style="endArrow=classic;html=1;rounded=0;exitX=1;exitY=0.5;exitDx=0;exitDy=0;" edge="1" parent="1">
          <mxGeometry width="50" height="50" relative="1" as="geometry">
            <mxPoint x="760" y="714" as="sourcePoint" />
            <mxPoint x="813" y="714" as="targetPoint" />
          </mxGeometry>
        </mxCell>
        <mxCell id="kV6HQKOM6O_8avg19G0K-36" value="" style="endArrow=classic;html=1;rounded=0;exitX=1;exitY=0.5;exitDx=0;exitDy=0;entryX=0.5;entryY=1;entryDx=0;entryDy=0;" edge="1" parent="1" source="kV6HQKOM6O_8avg19G0K-30" target="kV6HQKOM6O_8avg19G0K-32">
          <mxGeometry width="50" height="50" relative="1" as="geometry">
            <mxPoint x="770" y="855" as="sourcePoint" />
            <mxPoint x="820" y="805" as="targetPoint" />
            <Array as="points">
              <mxPoint x="820" y="830" />
            </Array>
          </mxGeometry>
        </mxCell>
        <mxCell id="kV6HQKOM6O_8avg19G0K-37" value="" style="endArrow=classic;html=1;rounded=0;exitX=0.5;exitY=1;exitDx=0;exitDy=0;entryX=0.5;entryY=0;entryDx=0;entryDy=0;" edge="1" parent="1" source="kV6HQKOM6O_8avg19G0K-11" target="kV6HQKOM6O_8avg19G0K-29">
          <mxGeometry width="50" height="50" relative="1" as="geometry">
            <mxPoint x="400" y="670" as="sourcePoint" />
            <mxPoint x="420" y="780" as="targetPoint" />
          </mxGeometry>
        </mxCell>
        <mxCell id="kV6HQKOM6O_8avg19G0K-50" value="False" style="edgeLabel;html=1;align=center;verticalAlign=middle;resizable=0;points=[];" vertex="1" connectable="0" parent="kV6HQKOM6O_8avg19G0K-37">
          <mxGeometry x="-0.3514" relative="1" as="geometry">
            <mxPoint as="offset" />
          </mxGeometry>
        </mxCell>
        <mxCell id="kV6HQKOM6O_8avg19G0K-38" value="" style="endArrow=classic;html=1;rounded=0;exitX=1;exitY=0.5;exitDx=0;exitDy=0;entryX=0;entryY=0.5;entryDx=0;entryDy=0;" edge="1" parent="1" source="kV6HQKOM6O_8avg19G0K-29" target="kV6HQKOM6O_8avg19G0K-30">
          <mxGeometry width="50" height="50" relative="1" as="geometry">
            <mxPoint x="400" y="670" as="sourcePoint" />
            <mxPoint x="450" y="620" as="targetPoint" />
          </mxGeometry>
        </mxCell>
        <mxCell id="kV6HQKOM6O_8avg19G0K-53" value="True" style="edgeLabel;html=1;align=center;verticalAlign=middle;resizable=0;points=[];" vertex="1" connectable="0" parent="kV6HQKOM6O_8avg19G0K-38">
          <mxGeometry x="-0.2" y="-2" relative="1" as="geometry">
            <mxPoint as="offset" />
          </mxGeometry>
        </mxCell>
        <mxCell id="kV6HQKOM6O_8avg19G0K-39" value="" style="endArrow=classic;html=1;rounded=0;exitX=0;exitY=0.5;exitDx=0;exitDy=0;" edge="1" parent="1" source="kV6HQKOM6O_8avg19G0K-21" target="kV6HQKOM6O_8avg19G0K-41">
          <mxGeometry width="50" height="50" relative="1" as="geometry">
            <mxPoint x="400" y="670" as="sourcePoint" />
            <mxPoint x="160" y="430" as="targetPoint" />
            <Array as="points">
              <mxPoint x="160" y="590" />
            </Array>
          </mxGeometry>
        </mxCell>
        <mxCell id="kV6HQKOM6O_8avg19G0K-54" value="False" style="edgeLabel;html=1;align=center;verticalAlign=middle;resizable=0;points=[];" vertex="1" connectable="0" parent="kV6HQKOM6O_8avg19G0K-39">
          <mxGeometry x="-0.7538" y="-1" relative="1" as="geometry">
            <mxPoint as="offset" />
          </mxGeometry>
        </mxCell>
        <mxCell id="kV6HQKOM6O_8avg19G0K-40" value="" style="endArrow=classic;html=1;rounded=0;exitX=0;exitY=0.5;exitDx=0;exitDy=0;" edge="1" parent="1" source="kV6HQKOM6O_8avg19G0K-7">
          <mxGeometry width="50" height="50" relative="1" as="geometry">
            <mxPoint x="240" y="450" as="sourcePoint" />
            <mxPoint x="160" y="390" as="targetPoint" />
            <Array as="points">
              <mxPoint x="160" y="290" />
            </Array>
          </mxGeometry>
        </mxCell>
        <mxCell id="kV6HQKOM6O_8avg19G0K-41" value="" style="ellipse;whiteSpace=wrap;html=1;aspect=fixed;" vertex="1" parent="1">
          <mxGeometry x="146" y="390" width="30" height="30" as="geometry" />
        </mxCell>
        <mxCell id="kV6HQKOM6O_8avg19G0K-42" value="" style="endArrow=classic;html=1;rounded=0;exitX=0;exitY=0.5;exitDx=0;exitDy=0;" edge="1" parent="1" source="kV6HQKOM6O_8avg19G0K-41" target="kV6HQKOM6O_8avg19G0K-43">
          <mxGeometry width="50" height="50" relative="1" as="geometry">
            <mxPoint x="70" y="400" as="sourcePoint" />
            <mxPoint x="90" y="405" as="targetPoint" />
          </mxGeometry>
        </mxCell>
        <mxCell id="kV6HQKOM6O_8avg19G0K-43" value="end" style="ellipse;whiteSpace=wrap;html=1;" vertex="1" parent="1">
          <mxGeometry x="-20" y="365" width="120" height="80" as="geometry" />
        </mxCell>
        <mxCell id="kV6HQKOM6O_8avg19G0K-55" value="write sum" style="shape=parallelogram;perimeter=parallelogramPerimeter;whiteSpace=wrap;html=1;fixedSize=1;" vertex="1" parent="1">
          <mxGeometry x="120" y="560" width="120" height="60" as="geometry" />
        </mxCell>
        <mxCell id="kV6HQKOM6O_8avg19G0K-58" value="" style="endArrow=classic;html=1;rounded=0;exitX=0.5;exitY=0;exitDx=0;exitDy=0;entryX=0;entryY=0;entryDx=0;entryDy=0;" edge="1" parent="1" source="kV6HQKOM6O_8avg19G0K-15" target="kV6HQKOM6O_8avg19G0K-32">
          <mxGeometry width="50" height="50" relative="1" as="geometry">
            <mxPoint x="430" y="670" as="sourcePoint" />
            <mxPoint x="790" y="650" as="targetPoint" />
            <Array as="points">
              <mxPoint x="550" y="650" />
              <mxPoint x="750" y="650" />
            </Array>
          </mxGeometry>
        </mxCell>
        <mxCell id="kV6HQKOM6O_8avg19G0K-59" value="False" style="edgeLabel;html=1;align=center;verticalAlign=middle;resizable=0;points=[];" vertex="1" connectable="0" parent="kV6HQKOM6O_8avg19G0K-58">
          <mxGeometry x="-0.7077" y="-3" relative="1" as="geometry">
            <mxPoint as="offset" />
          </mxGeometry>
        </mxCell>
        <mxCell id="kV6HQKOM6O_8avg19G0K-60" value="" style="endArrow=classic;html=1;rounded=0;exitX=1;exitY=0;exitDx=0;exitDy=0;entryX=0;entryY=1;entryDx=0;entryDy=0;" edge="1" parent="1" source="kV6HQKOM6O_8avg19G0K-29" target="kV6HQKOM6O_8avg19G0K-32">
          <mxGeometry width="50" height="50" relative="1" as="geometry">
            <mxPoint x="460" y="803" as="sourcePoint" />
            <mxPoint x="790" y="780" as="targetPoint" />
            <Array as="points">
              <mxPoint x="490" y="780" />
              <mxPoint x="760" y="780" />
            </Array>
          </mxGeometry>
        </mxCell>
        <mxCell id="kV6HQKOM6O_8avg19G0K-61" value="false" style="edgeLabel;html=1;align=center;verticalAlign=middle;resizable=0;points=[];" vertex="1" connectable="0" parent="kV6HQKOM6O_8avg19G0K-60">
          <mxGeometry x="-0.8291" y="-2" relative="1" as="geometry">
            <mxPoint as="offset" />
          </mxGeometry>
        </mxCell>
      </root>
    </mxGraphModel>
  </diagram>
  <diagram id="3vLgAmQ6x0eUsV3Ze3B0" name="Page-3">
    <mxGraphModel dx="1364" dy="1895" grid="1" gridSize="10" guides="1" tooltips="1" connect="1" arrows="1" fold="1" page="1" pageScale="1" pageWidth="850" pageHeight="1100" math="0" shadow="0">
      <root>
        <mxCell id="0" />
        <mxCell id="1" parent="0" />
        <mxCell id="D5doL3DkeiwIrUNI_lv2-1" value="start" style="ellipse;whiteSpace=wrap;html=1;" vertex="1" parent="1">
          <mxGeometry x="360" y="-117" width="120" height="80" as="geometry" />
        </mxCell>
        <mxCell id="D5doL3DkeiwIrUNI_lv2-2" value="" style="endArrow=classic;html=1;rounded=0;exitX=0.5;exitY=1;exitDx=0;exitDy=0;" edge="1" parent="1" source="D5doL3DkeiwIrUNI_lv2-1" target="D5doL3DkeiwIrUNI_lv2-3">
          <mxGeometry width="50" height="50" relative="1" as="geometry">
            <mxPoint x="400" y="170" as="sourcePoint" />
            <mxPoint x="420" y="190" as="targetPoint" />
          </mxGeometry>
        </mxCell>
        <mxCell id="D5doL3DkeiwIrUNI_lv2-3" value="read imput" style="shape=parallelogram;perimeter=parallelogramPerimeter;whiteSpace=wrap;html=1;fixedSize=1;" vertex="1" parent="1">
          <mxGeometry x="360" y="197" width="120" height="60" as="geometry" />
        </mxCell>
        <mxCell id="D5doL3DkeiwIrUNI_lv2-4" value="" style="endArrow=classic;html=1;rounded=0;exitX=0.5;exitY=1;exitDx=0;exitDy=0;" edge="1" parent="1" source="D5doL3DkeiwIrUNI_lv2-3" target="D5doL3DkeiwIrUNI_lv2-5">
          <mxGeometry width="50" height="50" relative="1" as="geometry">
            <mxPoint x="400" y="477" as="sourcePoint" />
            <mxPoint x="420" y="317" as="targetPoint" />
          </mxGeometry>
        </mxCell>
        <mxCell id="D5doL3DkeiwIrUNI_lv2-5" value="imput==&quot;SI&quot;" style="rhombus;whiteSpace=wrap;html=1;" vertex="1" parent="1">
          <mxGeometry x="380" y="297" width="80" height="80" as="geometry" />
        </mxCell>
        <mxCell id="D5doL3DkeiwIrUNI_lv2-6" value="" style="endArrow=classic;html=1;rounded=0;exitX=0.5;exitY=1;exitDx=0;exitDy=0;" edge="1" parent="1" source="D5doL3DkeiwIrUNI_lv2-5" target="D5doL3DkeiwIrUNI_lv2-7">
          <mxGeometry width="50" height="50" relative="1" as="geometry">
            <mxPoint x="400" y="477" as="sourcePoint" />
            <mxPoint x="420" y="427" as="targetPoint" />
          </mxGeometry>
        </mxCell>
        <mxCell id="D5doL3DkeiwIrUNI_lv2-34" value="True" style="edgeLabel;html=1;align=center;verticalAlign=middle;resizable=0;points=[];" vertex="1" connectable="0" parent="D5doL3DkeiwIrUNI_lv2-6">
          <mxGeometry x="-0.1765" y="1" relative="1" as="geometry">
            <mxPoint as="offset" />
          </mxGeometry>
        </mxCell>
        <mxCell id="D5doL3DkeiwIrUNI_lv2-7" value="read voto" style="shape=parallelogram;perimeter=parallelogramPerimeter;whiteSpace=wrap;html=1;fixedSize=1;" vertex="1" parent="1">
          <mxGeometry x="360" y="428" width="120" height="60" as="geometry" />
        </mxCell>
        <mxCell id="D5doL3DkeiwIrUNI_lv2-8" value="" style="endArrow=classic;html=1;rounded=0;exitX=0.5;exitY=1;exitDx=0;exitDy=0;" edge="1" parent="1" target="D5doL3DkeiwIrUNI_lv2-9">
          <mxGeometry width="50" height="50" relative="1" as="geometry">
            <mxPoint x="420" y="2" as="sourcePoint" />
            <mxPoint x="450" y="-58" as="targetPoint" />
          </mxGeometry>
        </mxCell>
        <mxCell id="D5doL3DkeiwIrUNI_lv2-9" value="i=0" style="rounded=0;whiteSpace=wrap;html=1;" vertex="1" parent="1">
          <mxGeometry x="360" y="-14" width="120" height="60" as="geometry" />
        </mxCell>
        <mxCell id="D5doL3DkeiwIrUNI_lv2-10" value="" style="endArrow=classic;html=1;rounded=0;exitX=0.5;exitY=1;exitDx=0;exitDy=0;" edge="1" parent="1" source="D5doL3DkeiwIrUNI_lv2-9" target="D5doL3DkeiwIrUNI_lv2-11">
          <mxGeometry width="50" height="50" relative="1" as="geometry">
            <mxPoint x="400" y="-64" as="sourcePoint" />
            <mxPoint x="420" y="116" as="targetPoint" />
          </mxGeometry>
        </mxCell>
        <mxCell id="D5doL3DkeiwIrUNI_lv2-11" value="sum=0" style="rounded=0;whiteSpace=wrap;html=1;" vertex="1" parent="1">
          <mxGeometry x="360" y="86" width="120" height="60" as="geometry" />
        </mxCell>
        <mxCell id="D5doL3DkeiwIrUNI_lv2-14" value="sum=voto+sum" style="rounded=0;whiteSpace=wrap;html=1;" vertex="1" parent="1">
          <mxGeometry x="360" y="636" width="120" height="60" as="geometry" />
        </mxCell>
        <mxCell id="D5doL3DkeiwIrUNI_lv2-15" value="" style="endArrow=classic;html=1;rounded=0;exitX=0.5;exitY=1;exitDx=0;exitDy=0;entryX=0.5;entryY=0;entryDx=0;entryDy=0;" edge="1" parent="1" source="D5doL3DkeiwIrUNI_lv2-7" target="D5doL3DkeiwIrUNI_lv2-26">
          <mxGeometry width="50" height="50" relative="1" as="geometry">
            <mxPoint x="400" y="441" as="sourcePoint" />
            <mxPoint x="450" y="391" as="targetPoint" />
          </mxGeometry>
        </mxCell>
        <mxCell id="D5doL3DkeiwIrUNI_lv2-17" value="" style="endArrow=classic;html=1;rounded=0;exitX=1;exitY=0.5;exitDx=0;exitDy=0;" edge="1" parent="1" source="D5doL3DkeiwIrUNI_lv2-14" target="D5doL3DkeiwIrUNI_lv2-18">
          <mxGeometry width="50" height="50" relative="1" as="geometry">
            <mxPoint x="400" y="536" as="sourcePoint" />
            <mxPoint x="450" y="486" as="targetPoint" />
          </mxGeometry>
        </mxCell>
        <mxCell id="D5doL3DkeiwIrUNI_lv2-18" value="i=i+1" style="rounded=0;whiteSpace=wrap;html=1;" vertex="1" parent="1">
          <mxGeometry x="550" y="636" width="120" height="60" as="geometry" />
        </mxCell>
        <mxCell id="D5doL3DkeiwIrUNI_lv2-19" value="" style="endArrow=classic;html=1;rounded=0;exitX=0.5;exitY=0;exitDx=0;exitDy=0;entryX=1;entryY=0.5;entryDx=0;entryDy=0;" edge="1" parent="1" source="D5doL3DkeiwIrUNI_lv2-30" target="D5doL3DkeiwIrUNI_lv2-3">
          <mxGeometry width="50" height="50" relative="1" as="geometry">
            <mxPoint x="400" y="440" as="sourcePoint" />
            <mxPoint x="610" y="190" as="targetPoint" />
            <Array as="points">
              <mxPoint x="610" y="227" />
            </Array>
          </mxGeometry>
        </mxCell>
        <mxCell id="D5doL3DkeiwIrUNI_lv2-20" value="" style="endArrow=classic;html=1;rounded=0;exitX=0;exitY=0.5;exitDx=0;exitDy=0;" edge="1" parent="1" source="D5doL3DkeiwIrUNI_lv2-5" target="D5doL3DkeiwIrUNI_lv2-37">
          <mxGeometry width="50" height="50" relative="1" as="geometry">
            <mxPoint x="400" y="440" as="sourcePoint" />
            <mxPoint x="300" y="337" as="targetPoint" />
          </mxGeometry>
        </mxCell>
        <mxCell id="D5doL3DkeiwIrUNI_lv2-33" value="False" style="edgeLabel;html=1;align=center;verticalAlign=middle;resizable=0;points=[];" vertex="1" connectable="0" parent="D5doL3DkeiwIrUNI_lv2-20">
          <mxGeometry x="-0.2" y="1" relative="1" as="geometry">
            <mxPoint as="offset" />
          </mxGeometry>
        </mxCell>
        <mxCell id="D5doL3DkeiwIrUNI_lv2-21" value="media=sum/i" style="shape=parallelogram;perimeter=parallelogramPerimeter;whiteSpace=wrap;html=1;fixedSize=1;" vertex="1" parent="1">
          <mxGeometry x="200" y="420" width="120" height="60" as="geometry" />
        </mxCell>
        <mxCell id="D5doL3DkeiwIrUNI_lv2-22" value="" style="endArrow=classic;html=1;rounded=0;exitX=0;exitY=0.5;exitDx=0;exitDy=0;" edge="1" parent="1" source="D5doL3DkeiwIrUNI_lv2-21" target="D5doL3DkeiwIrUNI_lv2-23">
          <mxGeometry width="50" height="50" relative="1" as="geometry">
            <mxPoint x="120" y="460" as="sourcePoint" />
            <mxPoint x="130" y="450" as="targetPoint" />
          </mxGeometry>
        </mxCell>
        <mxCell id="D5doL3DkeiwIrUNI_lv2-23" value="write media" style="shape=parallelogram;perimeter=parallelogramPerimeter;whiteSpace=wrap;html=1;fixedSize=1;" vertex="1" parent="1">
          <mxGeometry x="30" y="420" width="120" height="60" as="geometry" />
        </mxCell>
        <mxCell id="D5doL3DkeiwIrUNI_lv2-24" value="" style="endArrow=classic;html=1;rounded=0;exitX=0.5;exitY=1;exitDx=0;exitDy=0;" edge="1" parent="1" source="D5doL3DkeiwIrUNI_lv2-23" target="D5doL3DkeiwIrUNI_lv2-25">
          <mxGeometry width="50" height="50" relative="1" as="geometry">
            <mxPoint x="400" y="553" as="sourcePoint" />
            <mxPoint x="90" y="553" as="targetPoint" />
          </mxGeometry>
        </mxCell>
        <mxCell id="D5doL3DkeiwIrUNI_lv2-25" value="end" style="ellipse;whiteSpace=wrap;html=1;" vertex="1" parent="1">
          <mxGeometry x="30" y="513" width="120" height="80" as="geometry" />
        </mxCell>
        <mxCell id="D5doL3DkeiwIrUNI_lv2-26" value="voto&amp;gt;0" style="rhombus;whiteSpace=wrap;html=1;" vertex="1" parent="1">
          <mxGeometry x="380" y="520" width="80" height="80" as="geometry" />
        </mxCell>
        <mxCell id="D5doL3DkeiwIrUNI_lv2-27" value="" style="endArrow=classic;html=1;rounded=0;exitX=0.5;exitY=1;exitDx=0;exitDy=0;entryX=0.5;entryY=0;entryDx=0;entryDy=0;" edge="1" parent="1" source="D5doL3DkeiwIrUNI_lv2-26" target="D5doL3DkeiwIrUNI_lv2-14">
          <mxGeometry width="50" height="50" relative="1" as="geometry">
            <mxPoint x="400" y="440" as="sourcePoint" />
            <mxPoint x="450" y="390" as="targetPoint" />
          </mxGeometry>
        </mxCell>
        <mxCell id="D5doL3DkeiwIrUNI_lv2-36" value="true" style="edgeLabel;html=1;align=center;verticalAlign=middle;resizable=0;points=[];" vertex="1" connectable="0" parent="D5doL3DkeiwIrUNI_lv2-27">
          <mxGeometry x="-0.1111" y="1" relative="1" as="geometry">
            <mxPoint as="offset" />
          </mxGeometry>
        </mxCell>
        <mxCell id="D5doL3DkeiwIrUNI_lv2-29" value="" style="endArrow=classic;html=1;rounded=0;exitX=1;exitY=0.5;exitDx=0;exitDy=0;" edge="1" parent="1" source="D5doL3DkeiwIrUNI_lv2-26" target="D5doL3DkeiwIrUNI_lv2-30">
          <mxGeometry width="50" height="50" relative="1" as="geometry">
            <mxPoint x="480" y="570" as="sourcePoint" />
            <mxPoint x="530" y="520" as="targetPoint" />
          </mxGeometry>
        </mxCell>
        <mxCell id="D5doL3DkeiwIrUNI_lv2-35" value="False" style="edgeLabel;html=1;align=center;verticalAlign=middle;resizable=0;points=[];" vertex="1" connectable="0" parent="D5doL3DkeiwIrUNI_lv2-29">
          <mxGeometry x="-0.3481" y="2" relative="1" as="geometry">
            <mxPoint as="offset" />
          </mxGeometry>
        </mxCell>
        <mxCell id="D5doL3DkeiwIrUNI_lv2-30" value="" style="ellipse;whiteSpace=wrap;html=1;aspect=fixed;" vertex="1" parent="1">
          <mxGeometry x="595" y="545" width="30" height="30" as="geometry" />
        </mxCell>
        <mxCell id="D5doL3DkeiwIrUNI_lv2-32" value="" style="endArrow=classic;html=1;rounded=0;exitX=0.5;exitY=0;exitDx=0;exitDy=0;entryX=0.5;entryY=1;entryDx=0;entryDy=0;" edge="1" parent="1" source="D5doL3DkeiwIrUNI_lv2-18" target="D5doL3DkeiwIrUNI_lv2-30">
          <mxGeometry width="50" height="50" relative="1" as="geometry">
            <mxPoint x="610" y="610" as="sourcePoint" />
            <mxPoint x="660" y="560" as="targetPoint" />
          </mxGeometry>
        </mxCell>
        <mxCell id="D5doL3DkeiwIrUNI_lv2-37" value="imput==&quot;NO&quot;" style="rhombus;whiteSpace=wrap;html=1;" vertex="1" parent="1">
          <mxGeometry x="220" y="297" width="80" height="80" as="geometry" />
        </mxCell>
        <mxCell id="D5doL3DkeiwIrUNI_lv2-38" value="" style="endArrow=classic;html=1;rounded=0;exitX=0.5;exitY=1;exitDx=0;exitDy=0;entryX=0.5;entryY=0;entryDx=0;entryDy=0;" edge="1" parent="1" source="D5doL3DkeiwIrUNI_lv2-37" target="D5doL3DkeiwIrUNI_lv2-21">
          <mxGeometry width="50" height="50" relative="1" as="geometry">
            <mxPoint x="400" y="440" as="sourcePoint" />
            <mxPoint x="450" y="390" as="targetPoint" />
          </mxGeometry>
        </mxCell>
        <mxCell id="D5doL3DkeiwIrUNI_lv2-39" value="True" style="edgeLabel;html=1;align=center;verticalAlign=middle;resizable=0;points=[];" vertex="1" connectable="0" parent="D5doL3DkeiwIrUNI_lv2-38">
          <mxGeometry x="-0.2093" relative="1" as="geometry">
            <mxPoint as="offset" />
          </mxGeometry>
        </mxCell>
        <mxCell id="D5doL3DkeiwIrUNI_lv2-40" value="" style="endArrow=classic;html=1;rounded=0;exitX=0.5;exitY=0;exitDx=0;exitDy=0;entryX=0;entryY=0.5;entryDx=0;entryDy=0;" edge="1" parent="1" source="D5doL3DkeiwIrUNI_lv2-37" target="D5doL3DkeiwIrUNI_lv2-3">
          <mxGeometry width="50" height="50" relative="1" as="geometry">
            <mxPoint x="400" y="440" as="sourcePoint" />
            <mxPoint x="450" y="390" as="targetPoint" />
            <Array as="points">
              <mxPoint x="260" y="227" />
            </Array>
          </mxGeometry>
        </mxCell>
        <mxCell id="D5doL3DkeiwIrUNI_lv2-41" value="false" style="edgeLabel;html=1;align=center;verticalAlign=middle;resizable=0;points=[];" vertex="1" connectable="0" parent="D5doL3DkeiwIrUNI_lv2-40">
          <mxGeometry x="-0.5444" y="2" relative="1" as="geometry">
            <mxPoint as="offset" />
          </mxGeometry>
        </mxCell>
      </root>
    </mxGraphModel>
  </diagram>
  <diagram id="V6Ly_3OlaTPshii31mK3" name="Page-4">
    <mxGraphModel dx="1364" dy="795" grid="1" gridSize="10" guides="1" tooltips="1" connect="1" arrows="1" fold="1" page="1" pageScale="1" pageWidth="850" pageHeight="1100" math="0" shadow="0">
      <root>
        <mxCell id="0" />
        <mxCell id="1" parent="0" />
        <mxCell id="EyK1YLRhEUPViYWKdGY7-1" value="start" style="ellipse;whiteSpace=wrap;html=1;" vertex="1" parent="1">
          <mxGeometry x="360" y="40" width="120" height="80" as="geometry" />
        </mxCell>
        <mxCell id="EyK1YLRhEUPViYWKdGY7-2" value="" style="endArrow=classic;html=1;rounded=0;exitX=0.5;exitY=1;exitDx=0;exitDy=0;" edge="1" parent="1" source="EyK1YLRhEUPViYWKdGY7-1" target="EyK1YLRhEUPViYWKdGY7-3">
          <mxGeometry width="50" height="50" relative="1" as="geometry">
            <mxPoint x="390" y="220" as="sourcePoint" />
            <mxPoint x="420" y="200" as="targetPoint" />
          </mxGeometry>
        </mxCell>
        <mxCell id="EyK1YLRhEUPViYWKdGY7-3" value="read A, B" style="shape=parallelogram;perimeter=parallelogramPerimeter;whiteSpace=wrap;html=1;fixedSize=1;" vertex="1" parent="1">
          <mxGeometry x="360" y="180" width="120" height="60" as="geometry" />
        </mxCell>
        <mxCell id="EyK1YLRhEUPViYWKdGY7-4" value="" style="endArrow=classic;html=1;rounded=0;exitX=0.5;exitY=1;exitDx=0;exitDy=0;" edge="1" parent="1" source="EyK1YLRhEUPViYWKdGY7-3" target="EyK1YLRhEUPViYWKdGY7-5">
          <mxGeometry width="50" height="50" relative="1" as="geometry">
            <mxPoint x="400" y="440" as="sourcePoint" />
            <mxPoint x="420" y="310" as="targetPoint" />
          </mxGeometry>
        </mxCell>
        <mxCell id="EyK1YLRhEUPViYWKdGY7-5" value="&lt;div&gt;A&amp;gt;0 AND&lt;br&gt;&lt;/div&gt;&lt;div&gt;B&amp;gt;0 AND&lt;br&gt;&lt;/div&gt;&lt;div&gt;A%==1 AND&lt;br&gt;&lt;/div&gt;&lt;div&gt;B%==1AND&lt;/div&gt;&lt;div&gt;A&amp;lt;B&lt;br&gt;&lt;/div&gt;" style="rhombus;whiteSpace=wrap;html=1;" vertex="1" parent="1">
          <mxGeometry x="330" y="270" width="180" height="90" as="geometry" />
        </mxCell>
        <mxCell id="EyK1YLRhEUPViYWKdGY7-6" value="" style="endArrow=classic;html=1;rounded=0;exitX=0;exitY=0.5;exitDx=0;exitDy=0;" edge="1" parent="1" source="EyK1YLRhEUPViYWKdGY7-5" target="EyK1YLRhEUPViYWKdGY7-7">
          <mxGeometry width="50" height="50" relative="1" as="geometry">
            <mxPoint x="400" y="440" as="sourcePoint" />
            <mxPoint x="270" y="340" as="targetPoint" />
          </mxGeometry>
        </mxCell>
        <mxCell id="kdsZFn_gtbICF-h53MlQ-4" value="False" style="edgeLabel;html=1;align=center;verticalAlign=middle;resizable=0;points=[];" vertex="1" connectable="0" parent="EyK1YLRhEUPViYWKdGY7-6">
          <mxGeometry x="0.0444" y="-1" relative="1" as="geometry">
            <mxPoint as="offset" />
          </mxGeometry>
        </mxCell>
        <mxCell id="EyK1YLRhEUPViYWKdGY7-7" value="write&quot;errore&quot;" style="shape=parallelogram;perimeter=parallelogramPerimeter;whiteSpace=wrap;html=1;fixedSize=1;" vertex="1" parent="1">
          <mxGeometry x="150" y="285" width="120" height="60" as="geometry" />
        </mxCell>
        <mxCell id="EyK1YLRhEUPViYWKdGY7-8" value="" style="endArrow=classic;html=1;rounded=0;exitX=0.5;exitY=1;exitDx=0;exitDy=0;entryX=0.5;entryY=0;entryDx=0;entryDy=0;" edge="1" parent="1" source="EyK1YLRhEUPViYWKdGY7-7" target="EyK1YLRhEUPViYWKdGY7-24">
          <mxGeometry width="50" height="50" relative="1" as="geometry">
            <mxPoint x="250" y="390" as="sourcePoint" />
            <mxPoint x="230" y="380" as="targetPoint" />
          </mxGeometry>
        </mxCell>
        <mxCell id="EyK1YLRhEUPViYWKdGY7-9" value="end" style="ellipse;whiteSpace=wrap;html=1;" vertex="1" parent="1">
          <mxGeometry x="10" y="390" width="120" height="80" as="geometry" />
        </mxCell>
        <mxCell id="EyK1YLRhEUPViYWKdGY7-10" value="&lt;div&gt;sum=(A+i)+sum&lt;/div&gt;" style="whiteSpace=wrap;html=1;" vertex="1" parent="1">
          <mxGeometry x="360" y="620" width="120" height="60" as="geometry" />
        </mxCell>
        <mxCell id="EyK1YLRhEUPViYWKdGY7-11" value="i=0" style="whiteSpace=wrap;html=1;" vertex="1" parent="1">
          <mxGeometry x="360" y="400" width="120" height="60" as="geometry" />
        </mxCell>
        <mxCell id="EyK1YLRhEUPViYWKdGY7-13" value="" style="endArrow=classic;html=1;rounded=0;exitX=0.5;exitY=1;exitDx=0;exitDy=0;entryX=0.5;entryY=0;entryDx=0;entryDy=0;" edge="1" parent="1" source="EyK1YLRhEUPViYWKdGY7-5" target="EyK1YLRhEUPViYWKdGY7-11">
          <mxGeometry width="50" height="50" relative="1" as="geometry">
            <mxPoint x="400" y="440" as="sourcePoint" />
            <mxPoint x="420" y="390" as="targetPoint" />
          </mxGeometry>
        </mxCell>
        <mxCell id="kdsZFn_gtbICF-h53MlQ-3" value="True" style="edgeLabel;html=1;align=center;verticalAlign=middle;resizable=0;points=[];" vertex="1" connectable="0" parent="EyK1YLRhEUPViYWKdGY7-13">
          <mxGeometry x="-0.15" y="-2" relative="1" as="geometry">
            <mxPoint as="offset" />
          </mxGeometry>
        </mxCell>
        <mxCell id="EyK1YLRhEUPViYWKdGY7-14" value="" style="endArrow=classic;html=1;rounded=0;exitX=0.5;exitY=1;exitDx=0;exitDy=0;entryX=0.5;entryY=0;entryDx=0;entryDy=0;" edge="1" parent="1" source="EyK1YLRhEUPViYWKdGY7-11" target="EyK1YLRhEUPViYWKdGY7-17">
          <mxGeometry width="50" height="50" relative="1" as="geometry">
            <mxPoint x="400" y="440" as="sourcePoint" />
            <mxPoint x="430" y="510" as="targetPoint" />
          </mxGeometry>
        </mxCell>
        <mxCell id="EyK1YLRhEUPViYWKdGY7-17" value="(A+i)&amp;gt;B" style="rhombus;whiteSpace=wrap;html=1;" vertex="1" parent="1">
          <mxGeometry x="380" y="500" width="80" height="80" as="geometry" />
        </mxCell>
        <mxCell id="EyK1YLRhEUPViYWKdGY7-18" value="" style="endArrow=classic;html=1;rounded=0;exitX=0.5;exitY=1;exitDx=0;exitDy=0;entryX=0.5;entryY=0;entryDx=0;entryDy=0;" edge="1" parent="1" source="EyK1YLRhEUPViYWKdGY7-17" target="EyK1YLRhEUPViYWKdGY7-10">
          <mxGeometry width="50" height="50" relative="1" as="geometry">
            <mxPoint x="400" y="440" as="sourcePoint" />
            <mxPoint x="450" y="390" as="targetPoint" />
          </mxGeometry>
        </mxCell>
        <mxCell id="kdsZFn_gtbICF-h53MlQ-1" value="False" style="edgeLabel;html=1;align=center;verticalAlign=middle;resizable=0;points=[];" vertex="1" connectable="0" parent="EyK1YLRhEUPViYWKdGY7-18">
          <mxGeometry x="-0.15" relative="1" as="geometry">
            <mxPoint as="offset" />
          </mxGeometry>
        </mxCell>
        <mxCell id="EyK1YLRhEUPViYWKdGY7-19" value="" style="endArrow=classic;html=1;rounded=0;exitX=1;exitY=0.5;exitDx=0;exitDy=0;entryX=0;entryY=0.5;entryDx=0;entryDy=0;" edge="1" parent="1" source="EyK1YLRhEUPViYWKdGY7-10" target="EyK1YLRhEUPViYWKdGY7-20">
          <mxGeometry width="50" height="50" relative="1" as="geometry">
            <mxPoint x="490" y="630" as="sourcePoint" />
            <mxPoint x="550" y="650" as="targetPoint" />
          </mxGeometry>
        </mxCell>
        <mxCell id="EyK1YLRhEUPViYWKdGY7-20" value="i=i+1" style="whiteSpace=wrap;html=1;" vertex="1" parent="1">
          <mxGeometry x="560" y="620" width="120" height="60" as="geometry" />
        </mxCell>
        <mxCell id="EyK1YLRhEUPViYWKdGY7-21" value="" style="endArrow=classic;html=1;rounded=0;exitX=0.5;exitY=0;exitDx=0;exitDy=0;entryX=1;entryY=0.5;entryDx=0;entryDy=0;" edge="1" parent="1" source="EyK1YLRhEUPViYWKdGY7-20" target="EyK1YLRhEUPViYWKdGY7-17">
          <mxGeometry width="50" height="50" relative="1" as="geometry">
            <mxPoint x="720" y="540" as="sourcePoint" />
            <mxPoint x="770" y="490" as="targetPoint" />
            <Array as="points">
              <mxPoint x="620" y="540" />
            </Array>
          </mxGeometry>
        </mxCell>
        <mxCell id="EyK1YLRhEUPViYWKdGY7-22" value="" style="endArrow=classic;html=1;rounded=0;exitX=0;exitY=0.5;exitDx=0;exitDy=0;" edge="1" parent="1" source="EyK1YLRhEUPViYWKdGY7-17" target="EyK1YLRhEUPViYWKdGY7-23">
          <mxGeometry width="50" height="50" relative="1" as="geometry">
            <mxPoint x="270" y="550" as="sourcePoint" />
            <mxPoint x="300" y="540" as="targetPoint" />
          </mxGeometry>
        </mxCell>
        <mxCell id="kdsZFn_gtbICF-h53MlQ-2" value="True" style="edgeLabel;html=1;align=center;verticalAlign=middle;resizable=0;points=[];" vertex="1" connectable="0" parent="EyK1YLRhEUPViYWKdGY7-22">
          <mxGeometry x="-0.3167" y="2" relative="1" as="geometry">
            <mxPoint as="offset" />
          </mxGeometry>
        </mxCell>
        <mxCell id="EyK1YLRhEUPViYWKdGY7-23" value="write sum" style="shape=parallelogram;perimeter=parallelogramPerimeter;whiteSpace=wrap;html=1;fixedSize=1;" vertex="1" parent="1">
          <mxGeometry x="150" y="510" width="120" height="60" as="geometry" />
        </mxCell>
        <mxCell id="EyK1YLRhEUPViYWKdGY7-24" value="" style="ellipse;whiteSpace=wrap;html=1;aspect=fixed;" vertex="1" parent="1">
          <mxGeometry x="195" y="415" width="30" height="30" as="geometry" />
        </mxCell>
        <mxCell id="EyK1YLRhEUPViYWKdGY7-25" value="" style="endArrow=classic;html=1;rounded=0;exitX=0.5;exitY=0;exitDx=0;exitDy=0;entryX=0.5;entryY=1;entryDx=0;entryDy=0;" edge="1" parent="1" source="EyK1YLRhEUPViYWKdGY7-23" target="EyK1YLRhEUPViYWKdGY7-24">
          <mxGeometry width="50" height="50" relative="1" as="geometry">
            <mxPoint x="220" y="495" as="sourcePoint" />
            <mxPoint x="270" y="445" as="targetPoint" />
          </mxGeometry>
        </mxCell>
        <mxCell id="EyK1YLRhEUPViYWKdGY7-26" value="" style="endArrow=classic;html=1;rounded=0;exitX=0;exitY=0.5;exitDx=0;exitDy=0;entryX=1;entryY=0.5;entryDx=0;entryDy=0;" edge="1" parent="1" source="EyK1YLRhEUPViYWKdGY7-24" target="EyK1YLRhEUPViYWKdGY7-9">
          <mxGeometry width="50" height="50" relative="1" as="geometry">
            <mxPoint x="140" y="495" as="sourcePoint" />
            <mxPoint x="190" y="445" as="targetPoint" />
          </mxGeometry>
        </mxCell>
      </root>
    </mxGraphModel>
  </diagram>
</mxfile>
